<svg width="2000" height="2000" viewBox="0 0 2000 2000" fill="none" xmlns="http://www.w3.org/2000/svg">
<rect width="2000" height="2000" fill="black"/>
<rect x="1469.04" y="961.369" width="294.243" height="95.8277" transform="rotate(-90 1469.04 961.369)" fill="white"/>
<rect x="1048.39" y="667.126" width="516.484" height="95.8277" fill="white"/>
<rect x="1144.22" y="667.126" width="569.921" height="95.8277" transform="rotate(90 1144.22 667.126)" fill="white"/>
<rect x="1564.87" y="1332.87" width="516.484" height="95.8277" transform="rotate(-180 1564.87 1332.87)" fill="white"/>
<rect x="1240.04" y="941.856" width="324.828" height="96.7753" fill="white"/>
<rect x="1372.27" y="857.788" width="180.843" height="132.225" transform="rotate(90 1372.27 857.788)" fill="white"/>
<rect x="530.956" y="1038.63" width="294.243" height="95.8276" transform="rotate(90 530.956 1038.63)" fill="white"/>
<rect x="951.612" y="1332.87" width="516.483" height="95.8276" transform="rotate(-180 951.612 1332.87)" fill="white"/>
<rect x="855.784" y="1332.87" width="569.921" height="95.8276" transform="rotate(-90 855.784 1332.87)" fill="white"/>
<rect x="435.129" y="667.126" width="516.483" height="95.8276" fill="white"/>
<rect x="759.957" y="1038.63" width="324.828" height="96.7751" transform="rotate(-180 759.957 1038.63)" fill="white"/>
<rect x="759.957" y="941.856" width="200.356" height="132.225" transform="rotate(90 759.957 941.856)" fill="white"/>
</svg>
